<?xml version="1.0" standalone="no"?>
<!DOCTYPE svg PUBLIC "-//W3C//DTD SVG 20010904//EN"
 "http://www.w3.org/TR/2001/REC-SVG-20010904/DTD/svg10.dtd">
<svg version="1.0" xmlns="http://www.w3.org/2000/svg"
 width="294.000000pt" height="272.000000pt" viewBox="0 0 294.000000 272.000000"
 preserveAspectRatio="xMidYMid meet">

<g transform="translate(0.000000,272.000000) scale(0.100000,-0.100000)"
fill="#000000" stroke="none">
<path d="M0 1360 l0 -1360 1465 0 1465 0 0 1360 0 1360 -1465 0 -1465 0 0
-1360z m1673 917 c31 -20 37 -69 13 -102 -12 -17 -30 -18 -187 -19 -169 -1
-177 -2 -269 -34 -168 -58 -303 -154 -403 -284 -296 -386 -206 -936 197 -1202
156 -104 277 -140 466 -139 95 0 144 5 205 21 111 30 232 92 321 165 100 82
116 90 148 76 13 -6 30 -24 36 -39 15 -37 1 -63 -70 -125 -333 -294 -821 -323
-1195 -72 -78 53 -200 175 -255 256 -279 414 -205 964 173 1289 119 103 275
180 427 213 116 25 352 23 393 -4z m286 -93 c27 -35 26 -59 -4 -89 -30 -30
-54 -31 -89 -4 -17 14 -26 30 -26 50 0 65 80 93 119 43z m231 -166 c11 -12 20
-32 20 -45 0 -29 -42 -73 -68 -73 -33 0 -72 38 -72 71 0 62 78 92 120 47z
m154 -219 c32 -25 36 -77 7 -103 -48 -43 -134 10 -114 70 9 27 43 54 69 54 6
0 23 -9 38 -21z m-671 -200 c12 -7 25 -17 29 -23 13 -20 8 -69 -9 -88 -14 -16
-35 -18 -205 -18 -175 0 -189 1 -208 20 -27 27 -25 66 5 95 24 25 27 25 195
25 110 0 179 -4 193 -11z m241 -220 c32 -25 35 -70 6 -99 -19 -19 -33 -20
-434 -20 l-415 0 -21 27 c-25 32 -20 69 12 96 18 16 54 17 423 17 392 0 403
-1 429 -21z m-241 -200 c12 -7 25 -17 29 -23 13 -20 8 -69 -9 -88 -14 -16 -35
-18 -205 -18 -175 0 -189 1 -208 20 -27 27 -25 66 5 95 24 25 27 25 195 25
110 0 179 -4 193 -11z"/>
</g>
</svg>
